<svg width="200" height="52" viewBox="0 0 200 52" fill="none" xmlns="http://www.w3.org/2000/svg">
<rect width="52" height="52" rx="26" fill="#FBFDFF"/>
<path d="M31.1094 26.6445C31.0703 26.7461 30.9023 27.3242 30.6055 28.3789C29.7617 28.6289 28.9961 28.8242 28.3086 28.9648C27.6211 29.0977 26.875 29.1641 26.0703 29.1641C25.1016 29.1641 24.1328 28.9922 23.1641 28.6484C22.1953 28.3047 21.3242 27.7969 20.5508 27.125C19.7773 26.4453 19.1641 25.6211 18.7109 24.6523C18.2578 23.6758 18.0312 22.5664 18.0312 21.3242C18.0312 19.6211 18.4492 18.1836 19.2852 17.0117C20.1289 15.8398 21.1992 14.9766 22.4961 14.4219C23.8008 13.8672 25.1445 13.5898 26.5273 13.5898C27.6133 13.5898 28.6602 13.7812 29.668 14.1641C30.1367 14.3125 30.4883 14.3867 30.7227 14.3867C30.832 14.3633 30.9102 14.3477 30.957 14.3398C31.0117 14.332 31.0781 14.3242 31.1562 14.3164C31.2031 14.3164 31.2539 14.3477 31.3086 14.4102L31.1328 15.0781C30.9688 15.6641 30.8242 16.4102 30.6992 17.3164C30.5586 17.293 30.4648 17.2461 30.418 17.1758C30.3711 17.0977 30.3477 16.9766 30.3477 16.8125C30.332 16.3203 30.2656 15.9844 30.1484 15.8047C29.9375 15.4609 29.4102 15.1094 28.5664 14.75C27.7227 14.3906 26.875 14.2109 26.0234 14.2109C24.8984 14.2109 23.8789 14.4922 22.9648 15.0547C22.0586 15.6094 21.3398 16.4258 20.8086 17.5039C20.2852 18.582 20.0234 19.8477 20.0234 21.3008C20.0234 22.6367 20.2539 23.7891 20.7148 24.7578C21.1836 25.7188 21.7656 26.4805 22.4609 27.043C23.1641 27.6055 23.875 28.0117 24.5938 28.2617C25.3203 28.5117 25.9492 28.6367 26.4805 28.6367C27.3242 28.6367 28.0234 28.5 28.5781 28.2266C29.1328 27.9453 29.5664 27.6133 29.8789 27.2305C30.1992 26.8398 30.5078 26.375 30.8047 25.8359C30.9219 25.6094 31.0234 25.4961 31.1094 25.4961C31.2578 25.4961 31.332 25.5664 31.332 25.707C31.332 25.8086 31.2578 26.1211 31.1094 26.6445Z" fill="#001427"/>
<path d="M20.8906 33.6445C20.9297 33.7461 21.0977 34.3242 21.3945 35.3789C22.2383 35.6289 23.0039 35.8242 23.6914 35.9648C24.3789 36.0977 25.125 36.1641 25.9297 36.1641C26.8984 36.1641 27.8672 35.9922 28.8359 35.6484C29.8047 35.3047 30.6758 34.7969 31.4492 34.125C32.2227 33.4453 32.8359 32.6211 33.2891 31.6523C33.7422 30.6758 33.9688 29.5664 33.9688 28.3242C33.9688 26.6211 33.5508 25.1836 32.7148 24.0117C31.8711 22.8398 30.8008 21.9766 29.5039 21.4219C28.1992 20.8672 26.8555 20.5898 25.4727 20.5898C24.3867 20.5898 23.3398 20.7812 22.332 21.1641C21.8633 21.3125 21.5117 21.3867 21.2773 21.3867C21.168 21.3633 21.0898 21.3477 21.043 21.3398C20.9883 21.332 20.9219 21.3242 20.8438 21.3164C20.7969 21.3164 20.7461 21.3477 20.6914 21.4102L20.8672 22.0781C21.0312 22.6641 21.1758 23.4102 21.3008 24.3164C21.4414 24.293 21.5352 24.2461 21.582 24.1758C21.6289 24.0977 21.6523 23.9766 21.6523 23.8125C21.668 23.3203 21.7344 22.9844 21.8516 22.8047C22.0625 22.4609 22.5898 22.1094 23.4336 21.75C24.2773 21.3906 25.125 21.2109 25.9766 21.2109C27.1016 21.2109 28.1211 21.4922 29.0352 22.0547C29.9414 22.6094 30.6602 23.4258 31.1914 24.5039C31.7148 25.582 31.9766 26.8477 31.9766 28.3008C31.9766 29.6367 31.7461 30.7891 31.2852 31.7578C30.8164 32.7188 30.2344 33.4805 29.5391 34.043C28.8359 34.6055 28.125 35.0117 27.4062 35.2617C26.6797 35.5117 26.0508 35.6367 25.5195 35.6367C24.6758 35.6367 23.9766 35.5 23.4219 35.2266C22.8672 34.9453 22.4336 34.6133 22.1211 34.2305C21.8008 33.8398 21.4922 33.375 21.1953 32.8359C21.0781 32.6094 20.9766 32.4961 20.8906 32.4961C20.7422 32.4961 20.668 32.5664 20.668 32.707C20.668 32.8086 20.7422 33.1211 20.8906 33.6445Z" fill="#001427"/>
<path d="M69.72 33.74C67.96 33.74 66.448 33.388 65.184 32.684C63.936 31.964 62.976 30.956 62.304 29.66C61.632 28.348 61.296 26.804 61.296 25.028C61.296 23.252 61.632 21.716 62.304 20.42C62.976 19.124 63.936 18.124 65.184 17.42C66.448 16.7 67.96 16.34 69.72 16.34C70.856 16.34 71.928 16.516 72.936 16.868C73.96 17.22 74.8 17.724 75.456 18.38L74.448 20.828C73.728 20.22 72.992 19.78 72.24 19.508C71.488 19.22 70.68 19.076 69.816 19.076C68.104 19.076 66.8 19.596 65.904 20.636C65.008 21.66 64.56 23.124 64.56 25.028C64.56 26.932 65.008 28.404 65.904 29.444C66.8 30.484 68.104 31.004 69.816 31.004C70.68 31.004 71.488 30.868 72.24 30.596C72.992 30.308 73.728 29.86 74.448 29.252L75.456 31.7C74.8 32.34 73.96 32.844 72.936 33.212C71.928 33.564 70.856 33.74 69.72 33.74ZM77.8491 33.5V16.58H80.8491V23.468C81.2491 22.828 81.7851 22.348 82.4571 22.028C83.1291 21.692 83.8731 21.524 84.6891 21.524C87.4571 21.524 88.8411 23.132 88.8411 26.348V33.5H85.8411V26.492C85.8411 25.58 85.6651 24.916 85.3131 24.5C84.9771 24.084 84.4491 23.876 83.7291 23.876C82.8491 23.876 82.1451 24.156 81.6171 24.716C81.1051 25.26 80.8491 25.988 80.8491 26.9V33.5H77.8491ZM91.6961 19.244V16.316H95.0561V19.244H91.6961ZM91.8881 33.5V21.764H94.8881V33.5H91.8881ZM103.429 33.74C102.197 33.74 101.125 33.492 100.213 32.996C99.3013 32.484 98.5973 31.764 98.1013 30.836C97.6053 29.908 97.3573 28.82 97.3573 27.572C97.3573 26.324 97.6053 25.252 98.1013 24.356C98.5973 23.444 99.3013 22.748 100.213 22.268C101.125 21.772 102.197 21.524 103.429 21.524C104.181 21.524 104.925 21.644 105.661 21.884C106.397 22.124 107.005 22.46 107.485 22.892L106.597 24.98C106.181 24.612 105.709 24.332 105.181 24.14C104.669 23.948 104.173 23.852 103.693 23.852C102.653 23.852 101.845 24.18 101.269 24.836C100.709 25.476 100.429 26.396 100.429 27.596C100.429 28.78 100.709 29.716 101.269 30.404C101.845 31.076 102.653 31.412 103.693 31.412C104.157 31.412 104.653 31.316 105.181 31.124C105.709 30.932 106.181 30.644 106.597 30.26L107.485 32.372C107.005 32.788 106.389 33.124 105.637 33.38C104.901 33.62 104.165 33.74 103.429 33.74ZM121.914 33.74C120.586 33.74 119.354 33.572 118.218 33.236C117.082 32.884 116.122 32.412 115.338 31.82L116.274 29.396C117.058 29.956 117.914 30.388 118.842 30.692C119.786 30.996 120.81 31.148 121.914 31.148C123.178 31.148 124.098 30.94 124.674 30.524C125.25 30.092 125.538 29.54 125.538 28.868C125.538 28.308 125.33 27.868 124.914 27.548C124.514 27.228 123.818 26.964 122.826 26.756L120.186 26.204C117.178 25.564 115.674 24.02 115.674 21.572C115.674 20.516 115.954 19.596 116.514 18.812C117.074 18.028 117.85 17.42 118.842 16.988C119.834 16.556 120.978 16.34 122.274 16.34C123.426 16.34 124.506 16.516 125.514 16.868C126.522 17.204 127.362 17.684 128.034 18.308L127.098 20.612C125.77 19.492 124.154 18.932 122.25 18.932C121.146 18.932 120.282 19.164 119.658 19.628C119.034 20.092 118.722 20.7 118.722 21.452C118.722 22.028 118.914 22.492 119.298 22.844C119.682 23.18 120.338 23.444 121.266 23.636L123.882 24.188C125.466 24.524 126.642 25.052 127.41 25.772C128.194 26.492 128.586 27.452 128.586 28.652C128.586 29.66 128.314 30.548 127.77 31.316C127.226 32.084 126.45 32.684 125.442 33.116C124.45 33.532 123.274 33.74 121.914 33.74ZM136.719 33.74C135.391 33.74 134.247 33.492 133.287 32.996C132.327 32.5 131.583 31.796 131.055 30.884C130.543 29.972 130.287 28.892 130.287 27.644C130.287 26.428 130.535 25.364 131.031 24.452C131.543 23.54 132.239 22.828 133.119 22.316C134.015 21.788 135.031 21.524 136.167 21.524C137.831 21.524 139.143 22.052 140.103 23.108C141.079 24.164 141.567 25.604 141.567 27.428V28.316H133.167C133.391 30.412 134.591 31.46 136.767 31.46C137.423 31.46 138.079 31.364 138.735 31.172C139.391 30.964 139.991 30.644 140.535 30.212L141.375 32.228C140.815 32.692 140.111 33.06 139.263 33.332C138.415 33.604 137.567 33.74 136.719 33.74ZM136.287 23.564C135.407 23.564 134.695 23.836 134.151 24.38C133.607 24.924 133.279 25.66 133.167 26.588H139.071C139.007 25.612 138.735 24.868 138.255 24.356C137.791 23.828 137.135 23.564 136.287 23.564ZM148.455 33.74C147.431 33.74 146.527 33.492 145.743 32.996C144.975 32.5 144.375 31.796 143.943 30.884C143.511 29.956 143.295 28.868 143.295 27.62C143.295 26.356 143.511 25.276 143.943 24.38C144.375 23.468 144.975 22.764 145.743 22.268C146.527 21.772 147.431 21.524 148.455 21.524C149.287 21.524 150.039 21.708 150.711 22.076C151.383 22.444 151.887 22.932 152.223 23.54V16.58H155.223V33.5H152.295V31.556C151.975 32.228 151.471 32.764 150.783 33.164C150.095 33.548 149.319 33.74 148.455 33.74ZM149.295 31.46C150.191 31.46 150.911 31.14 151.455 30.5C151.999 29.844 152.271 28.884 152.271 27.62C152.271 26.34 151.999 25.388 151.455 24.764C150.911 24.124 150.191 23.804 149.295 23.804C148.399 23.804 147.679 24.124 147.135 24.764C146.591 25.388 146.319 26.34 146.319 27.62C146.319 28.884 146.591 29.844 147.135 30.5C147.679 31.14 148.399 31.46 149.295 31.46ZM162.581 33.74C159.701 33.74 158.261 32.124 158.261 28.892V21.764H161.261V28.94C161.261 29.772 161.429 30.388 161.765 30.788C162.101 31.188 162.637 31.388 163.373 31.388C164.173 31.388 164.829 31.116 165.341 30.572C165.853 30.012 166.109 29.276 166.109 28.364V21.764H169.109V33.5H166.181V31.748C165.397 33.076 164.197 33.74 162.581 33.74ZM172.04 19.244V16.316H175.4V19.244H172.04ZM172.232 33.5V21.764H175.232V33.5H172.232ZM178.349 33.5V21.764H181.277V23.828C181.853 22.436 183.085 21.668 184.973 21.524L185.885 21.452L186.077 23.996L184.349 24.164C182.381 24.356 181.397 25.364 181.397 27.188V33.5H178.349ZM193.344 33.74C192.016 33.74 190.872 33.492 189.912 32.996C188.952 32.5 188.208 31.796 187.68 30.884C187.168 29.972 186.912 28.892 186.912 27.644C186.912 26.428 187.16 25.364 187.656 24.452C188.168 23.54 188.864 22.828 189.744 22.316C190.64 21.788 191.656 21.524 192.792 21.524C194.456 21.524 195.768 22.052 196.728 23.108C197.704 24.164 198.192 25.604 198.192 27.428V28.316H189.792C190.016 30.412 191.216 31.46 193.392 31.46C194.048 31.46 194.704 31.364 195.36 31.172C196.016 30.964 196.616 30.644 197.16 30.212L198 32.228C197.44 32.692 196.736 33.06 195.888 33.332C195.04 33.604 194.192 33.74 193.344 33.74ZM192.912 23.564C192.032 23.564 191.32 23.836 190.776 24.38C190.232 24.924 189.904 25.66 189.792 26.588H195.696C195.632 25.612 195.36 24.868 194.88 24.356C194.416 23.828 193.76 23.564 192.912 23.564Z" fill="#FBFDFF"/>
</svg>
